<svg xmlns="http://www.w3.org/2000/svg" xmlns:xlink="http://www.w3.org/1999/xlink" width="612" height="646" viewBox="0 0 50 150" style="-ms-transform: rotate(360deg); -webkit-transform: rotate(360deg); transform: rotate(360deg);">
  <g fill="none" fill-rule="evenodd">
    <path d="M35.053 142.317l-3.783-1.293s.462-19.286-6.46-20.67c-4.613-5.353.74-227.013 17.35-.739c0 0-5.722 2.86-6.737 7.752c-1.108 4.799-.37 14.95-.37 14.95z" fill="#FFF" />
    <path d="M35.053 142.317l-3.783-1.293s.462-19.286-6.46-20.67c-4.613-5.353.74-227.013 17.35-.739c0 0-5.722 2.86-6.737 7.752c-1.108 4.799-.37 14.95-.37 14.95z" fill="#A6A385" />
    <path d="M37.084 123.676s33.13-21.779 25.377-67.09c-7.474-32.943-25.1-43.74-27.038-47.893C33.301 5.74 31.27.573 31.27.573l1.385 91.634c0 .093-2.861 28.054 4.43 31.47" fill="#FFF" />
    <path d="M37.084 123.676s33.13-21.779 25.377-67.09c-7.474-32.943-25.1-43.74-27.038-47.893C33.301 5.74 31.27.573 31.27.573l1.385 91.634c0 .093-2.861 28.054 4.43 31.47" fill="#499D4A" />
    <path d="M29.333 124.875S-1.767 103.65.079 66.277C1.832 28.903 23.795 10.539 28.04 7.217c2.769-2.953 2.861-4.061 3.046-7.014c1.938 4.153 1.569 62.106 1.845 68.934c.83 26.3-1.476 50.756-3.598 55.738z" fill="#FFF" />
    <path d="M29.333 124.875S-1.767 103.65.079 66.277C1.832 28.903 23.795 10.539 28.04 7.217c2.769-2.953 2.861-4.061 3.046-7.014c1.938 4.153 1.569 62.106 1.845 68.934c.83 26.3-1.476 50.756-3.598 55.738z" fill="#58AA50" />
  </g>
  <rect x="10" y="10" width="412" height="346" fill="transparent" />
</svg>